<?xml version="1.0" standalone="no"?>
<!DOCTYPE svg PUBLIC "-//W3C//DTD SVG 20010904//EN"
 "http://www.w3.org/TR/2001/REC-SVG-20010904/DTD/svg10.dtd">
<svg version="1.0" xmlns="http://www.w3.org/2000/svg"
 width="1275.000000pt" height="1415.000000pt" viewBox="0 0 1275.000000 1415.000000"
 preserveAspectRatio="xMidYMid meet">

<g transform="translate(0.000000,1415.000000) scale(0.100000,-0.100000)"
fill="#000000" stroke="none">
<path d="M5621 13770 c-228 -19 -495 -76 -656 -140 -297 -118 -521 -292 -647
-502 l-40 -67 21 -193 c34 -313 68 -667 106 -1083 19 -214 36 -406 39 -426 l4
-35 -132 -43 c-1038 -340 -1925 -872 -2673 -1603 -150 -146 -150 -136 7 -287
l121 -116 -77 -85 c-504 -563 -932 -1274 -1243 -2068 -58 -147 -61 -178 -18
-202 27 -15 31 -13 145 48 247 133 693 332 744 332 9 0 25 -27 43 -72 16 -40
63 -152 106 -250 l79 -176 -30 -174 c-150 -898 -50 -1830 288 -2673 451 -1125
1304 -2050 2393 -2596 914 -457 1949 -621 2969 -468 847 127 1666 482 2333
1013 414 328 787 734 1069 1162 695 1052 962 2322 753 3576 -14 81 -25 153
-25 159 0 6 -7 8 -16 5 -12 -5 -15 -2 -9 11 33 87 86 250 131 407 30 104 55
191 57 192 1 2 83 -37 182 -85 205 -100 377 -197 583 -329 78 -51 151 -92 162
-92 25 0 60 34 60 58 0 43 -212 547 -327 777 -291 581 -662 1119 -1077 1563
l-30 32 118 119 c130 130 139 150 95 198 -46 49 -267 250 -387 351 -952 802
-2148 1341 -3377 1521 -77 12 -155 23 -172 26 l-33 6 0 802 0 802 -37 65 c-21
35 -74 101 -118 146 -196 201 -491 329 -870 379 -144 19 -470 27 -614 15z
m554 -131 c266 -29 539 -118 702 -231 100 -68 205 -177 244 -250 18 -36 19
-69 19 -1091 0 -580 -3 -1108 -7 -1175 l-6 -121 -36 30 c-52 43 -172 123 -210
139 l-33 13 5 76 c3 42 11 248 18 458 19 545 -1 1063 -52 1373 -32 193 -70
270 -131 270 -56 0 -88 -67 -109 -226 -25 -194 -21 -1013 8 -1703 6 -145 5
-154 -12 -148 -17 7 -180 40 -256 52 l-37 5 -5 518 c-5 503 -11 636 -42 947
-18 181 -58 426 -84 518 -40 138 -91 193 -150 162 -46 -23 -62 -88 -68 -285
-7 -203 4 -400 63 -1203 26 -345 45 -629 43 -631 -2 -2 -90 -6 -194 -9 l-190
-6 -1 392 c-2 895 -104 1614 -236 1661 -91 33 -128 -59 -128 -319 0 -189 15
-415 84 -1265 14 -168 28 -352 32 -410 l6 -105 -73 -18 c-41 -10 -117 -35
-169 -56 l-95 -38 -6 416 c-8 512 -28 775 -85 1120 -56 339 -118 494 -199 494
-33 0 -61 -26 -77 -72 -17 -47 -16 -422 1 -616 6 -77 30 -338 51 -580 49 -546
70 -806 70 -865 0 -44 -3 -48 -100 -147 -55 -55 -100 -100 -100 -99 0 0 -9
102 -20 226 l-19 224 27 36 c14 19 44 54 66 78 21 23 36 42 34 42 -3 0 -31 -9
-63 -20 -32 -11 -62 -20 -67 -20 -4 0 -8 17 -8 38 0 32 9 47 70 111 39 40 70
75 70 77 0 2 -30 -10 -66 -27 -80 -35 -94 -29 -94 40 0 45 2 48 75 110 42 35
74 65 73 67 -2 1 -38 -6 -80 -15 l-77 -18 -6 41 c-3 22 -19 192 -35 376 -17
184 -38 397 -46 474 -7 76 -14 142 -14 146 0 5 25 38 56 74 30 36 54 66 51 66
-2 0 -27 -7 -56 -16 -29 -8 -55 -13 -58 -11 -2 3 21 35 52 72 31 36 54 69 52
72 -3 3 -29 -3 -57 -12 -28 -9 -54 -14 -58 -11 -8 8 -20 105 -21 167 -1 54 31
108 123 207 238 254 634 409 1136 442 137 9 365 4 505 -11z m-91 -618 c68
-285 128 -841 171 -1590 8 -145 15 -276 15 -292 l0 -29 -77 6 c-43 3 -92 7
-109 10 l-31 4 -6 448 c-4 246 -11 548 -18 672 -13 277 -17 821 -6 875 8 36
10 38 22 21 8 -10 25 -66 39 -125z m-650 -29 c59 -189 113 -552 156 -1042 23
-271 50 -687 50 -775 l0 -61 -87 -12 c-49 -6 -99 -15 -112 -19 l-24 -6 6 69
c7 93 -8 681 -29 1067 -9 171 -17 425 -18 562 -1 327 10 369 58 217z m1306
-147 c48 -284 82 -823 96 -1544 l7 -343 -31 16 c-17 9 -71 29 -119 46 -50 16
-88 35 -88 42 0 7 4 108 8 223 4 116 12 462 17 770 12 659 27 918 58 969 9 16
32 -63 52 -179z m-1924 8 c68 -162 146 -631 193 -1168 18 -205 25 -294 47
-640 l5 -90 -53 -29 c-29 -16 -79 -47 -110 -68 l-58 -39 0 243 c0 265 -10 519
-40 1018 -10 179 -22 399 -26 490 -7 170 1 320 17 320 5 0 16 -17 25 -37z
m2658 -1448 c1332 -209 2564 -806 3547 -1718 l84 -79 -444 -439 c-244 -241
-448 -439 -454 -439 -5 0 -41 29 -78 65 -316 297 -763 609 -1194 831 -493 255
-1075 449 -1602 534 l-71 11 -4 92 c-2 51 -2 334 1 630 l3 537 27 0 c14 0 98
-11 185 -25z m-3014 -226 c0 -6 13 -173 30 -372 21 -255 30 -443 32 -635 l3
-273 -160 -65 c-577 -234 -1133 -580 -1589 -990 -54 -49 -120 -108 -147 -132
l-48 -42 -388 371 c-213 204 -417 400 -453 436 l-65 64 90 85 c507 479 1010
833 1615 1139 304 153 534 250 860 361 189 65 220 72 220 53z m1645 -179 c485
-31 837 -169 987 -388 l29 -42 14 -293 c8 -160 15 -312 15 -336 l0 -44 -57 54
c-32 30 -72 65 -90 77 -31 22 -31 23 -39 135 l-8 112 -14 -95 c-8 -52 -16 -96
-17 -98 -1 -2 -23 7 -47 19 l-45 22 -7 181 c-5 99 -11 206 -16 236 -7 52 -7
50 -9 -36 -1 -87 -17 -287 -26 -329 -4 -21 -6 -20 -104 11 -213 70 -483 107
-776 107 -487 -1 -884 -140 -1160 -404 l-85 -82 0 50 c0 49 0 50 93 139 50 50
113 105 139 124 27 18 46 35 44 37 -6 6 -108 -37 -193 -82 l-83 -44 0 39 c0
37 6 44 84 113 101 88 206 162 318 223 92 50 78 49 -57 -3 -93 -36 -202 -92
-292 -149 l-53 -34 0 39 c0 36 7 45 78 111 42 40 106 92 142 116 36 24 59 44
53 44 -20 0 -133 -44 -202 -79 -34 -18 -59 -26 -55 -19 162 276 439 456 821
534 199 40 374 50 618 34z m195 -855 c432 -67 712 -212 821 -427 49 -95 52
-135 34 -441 -25 -440 -50 -635 -91 -721 l-15 -31 25 28 26 28 0 -24 c0 -35
-46 -210 -76 -292 -84 -223 -351 -640 -491 -764 -121 -108 -232 -145 -428
-144 -238 1 -430 67 -635 217 -75 55 -470 436 -518 500 -56 73 -88 142 -111
233 -21 79 -41 238 -41 315 l0 42 43 -41 c23 -22 53 -46 66 -53 21 -11 20 -7
-11 31 -75 92 -106 185 -143 424 -15 94 -45 257 -67 364 -45 219 -46 207 27
301 185 240 502 403 905 466 117 18 538 12 680 -11z m1135 -130 c514 -97 1051
-286 1510 -532 77 -42 141 -77 143 -78 2 -2 -31 -58 -72 -126 -42 -68 -76
-133 -76 -144 0 -27 23 -48 140 -125 859 -570 1490 -1362 1902 -2390 53 -133
70 -160 100 -160 37 0 56 20 84 90 16 38 32 70 35 70 6 0 32 -172 51 -350 17
-154 17 -777 0 -930 -69 -624 -222 -1159 -482 -1683 -78 -157 -240 -441 -289
-505 l-18 -24 -40 84 c-22 45 -120 232 -218 413 -97 182 -227 434 -290 560
-62 127 -179 354 -260 505 -221 413 -260 505 -310 734 -38 171 -85 299 -175
481 -119 238 -202 346 -440 570 -47 44 -126 124 -176 177 -147 156 -217 182
-536 193 -262 9 -535 45 -698 92 -83 24 -115 40 -214 108 -26 18 -74 42 -106
52 l-58 18 -6 80 c-12 147 -62 296 -128 386 -23 31 -27 20 63 150 183 260 300
524 344 774 18 97 19 101 61 138 57 50 72 101 124 405 59 348 54 477 -22 553
-17 16 -43 33 -59 36 -35 7 -36 11 -45 241 -5 142 -4 171 8 168 7 -3 76 -17
153 -31z m-2905 -369 c0 -113 0 -114 -25 -120 -81 -20 -138 -129 -139 -266 -1
-81 1 -90 45 -185 50 -107 73 -173 113 -327 37 -143 76 -212 137 -243 22 -12
27 -23 32 -73 4 -32 27 -162 52 -288 67 -339 67 -305 -5 -394 -71 -88 -139
-215 -170 -318 -16 -52 -29 -77 -48 -91 -71 -50 -459 -265 -635 -352 -166 -82
-240 -112 -470 -187 -589 -194 -796 -300 -965 -497 -57 -66 -96 -151 -119
-255 -15 -71 -18 -129 -17 -360 1 -276 10 -419 65 -965 14 -138 22 -301 25
-475 3 -288 13 -367 75 -595 77 -284 238 -727 398 -1094 23 -52 41 -97 41 -99
0 -11 -50 41 -162 171 -817 947 -1238 2160 -1178 3391 9 193 37 470 56 561 6
29 7 28 36 -30 17 -33 37 -68 46 -77 19 -22 65 -23 82 -3 7 8 38 79 70 157
405 1010 1022 1787 1878 2367 119 81 119 83 17 246 l-75 119 83 48 c185 108
695 346 745 348 9 0 12 -29 12 -114z m2800 -165 c18 -64 11 -172 -26 -386 -44
-264 -55 -308 -49 -200 19 302 35 576 35 609 0 33 2 37 15 26 8 -7 19 -29 25
-49z m-2756 -143 c26 -119 56 -288 54 -311 0 -12 4 -40 10 -62 13 -48 36 -254
29 -261 -2 -3 -14 32 -26 78 -43 164 -63 225 -113 337 -56 126 -58 158 -19
247 29 65 46 57 65 -28z m4752 -89 c108 -74 342 -247 404 -300 31 -26 28 -25
-156 54 -83 36 -220 88 -305 117 -85 29 -156 54 -158 56 -5 4 82 154 90 154 3
0 59 -37 125 -81z m-5688 -51 l41 -67 -97 -32 c-118 -39 -325 -122 -459 -183
l-98 -46 47 43 c65 61 270 218 396 304 120 83 106 84 170 -19z m7345 -5 c197
-208 427 -502 622 -798 158 -239 258 -412 399 -695 107 -215 261 -558 254
-566 -2 -1 -57 31 -123 71 -270 163 -633 343 -712 352 -51 7 -50 8 -98 -167
-50 -186 -108 -370 -167 -530 -70 -189 -67 -184 -90 -124 -45 116 -175 392
-252 535 -256 476 -528 842 -895 1209 -146 145 -419 386 -495 436 -154 100
453 -179 682 -315 70 -41 99 -40 159 8 26 21 183 174 348 340 165 166 303 301
307 301 3 0 31 -26 61 -57z m-8676 -431 c242 -232 263 -248 313 -244 8 1 85
40 170 88 85 47 193 105 240 129 112 56 341 157 346 152 2 -2 -38 -37 -88 -78
-139 -112 -187 -156 -383 -353 -404 -405 -686 -804 -958 -1353 -51 -103 -115
-241 -142 -305 -27 -65 -52 -118 -56 -118 -9 0 -186 389 -261 573 -34 84 -68
160 -76 170 -8 9 -28 17 -44 17 -58 0 -422 -147 -658 -265 -72 -36 -130 -63
-130 -61 0 18 150 358 229 521 264 541 613 1068 968 1461 l86 96 96 -95 c53
-51 210 -203 348 -335z m3033 -1244 c244 -200 533 -300 825 -285 162 9 265 41
377 118 32 21 58 37 58 34 0 -3 -34 -72 -75 -155 l-75 -149 24 -28 c96 -117
194 -302 226 -427 23 -91 24 -120 9 -182 -12 -47 -51 -88 -191 -201 l-67 -54
-98 42 c-399 170 -833 376 -833 395 0 8 10 71 21 141 14 81 22 176 23 258 1
186 -2 191 -167 275 -147 74 -193 114 -263 228 -26 42 -81 126 -122 187 -41
60 -78 121 -82 135 -29 92 -27 91 167 -101 103 -102 213 -206 243 -231z m-398
80 c41 -62 88 -135 104 -163 55 -94 140 -168 270 -232 137 -67 138 -70 128
-203 -8 -109 -35 -304 -44 -313 -4 -4 -47 15 -96 43 -250 145 -413 282 -542
455 -75 102 -95 141 -87 176 l7 30 36 -43 c56 -66 92 -101 151 -147 97 -75
117 -77 43 -4 -68 66 -155 188 -182 252 -12 29 -11 37 6 72 l19 40 45 -68 c49
-75 187 -217 241 -247 29 -17 27 -12 -22 36 -87 86 -209 287 -209 343 0 14 46
85 55 85 2 0 37 -51 77 -112z m1841 -245 c30 -107 40 -212 33 -373 -3 -85 -8
-172 -12 -192 l-7 -38 -53 106 c-30 58 -74 135 -99 170 -25 36 -45 69 -45 75
0 17 151 309 159 309 5 0 16 -26 24 -57z m-2153 -196 c29 -46 99 -126 193
-221 84 -84 188 -202 239 -270 139 -184 247 -312 345 -409 99 -97 230 -200
244 -192 19 12 7 33 -33 60 -96 63 -309 305 -448 510 l-34 49 60 -34 c253
-143 511 -270 899 -440 121 -53 219 -101 219 -106 -4 -26 -331 -168 -552 -238
-215 -69 -609 -156 -710 -156 -57 0 -58 -11 -15 -111 143 -333 296 -836 368
-1207 49 -259 67 -431 69 -669 0 -122 -1 -224 -4 -226 -10 -11 -187 25 -235
48 -50 23 -210 146 -228 176 -7 11 1 41 26 105 58 147 56 160 -10 65 -78 -112
-86 -116 -128 -68 l-34 39 29 57 c37 71 59 156 65 246 l5 70 -18 -60 c-33
-111 -106 -245 -133 -245 -5 0 -20 17 -34 38 l-24 37 28 85 c16 47 32 101 36
120 7 31 1 25 -44 -42 -29 -43 -56 -78 -60 -78 -4 0 -16 18 -26 39 -17 38 -17
40 8 103 45 114 52 168 52 403 -1 182 -5 242 -23 344 -12 69 -25 127 -28 130
-3 3 -2 -16 2 -44 4 -27 7 -133 7 -235 -1 -196 -22 -358 -61 -470 l-19 -55
-12 40 c-6 22 -27 115 -46 207 -20 92 -55 225 -79 295 -42 122 -137 342 -185
428 -29 52 -22 31 27 -80 98 -223 160 -436 193 -661 49 -339 116 -521 264
-724 35 -47 77 -113 94 -147 52 -103 94 -275 116 -465 l6 -57 -78 5 c-222 14
-350 36 -428 75 -38 19 -39 19 -16 0 62 -48 227 -87 521 -121 389 -45 459 -70
672 -247 76 -63 278 -270 278 -284 0 -15 -159 -275 -221 -364 -77 -108 -229
-263 -324 -331 -38 -27 -110 -71 -160 -97 -112 -59 -75 -51 60 13 237 113 437
303 645 610 104 152 118 164 189 156 100 -12 261 -91 372 -182 64 -53 125
-148 145 -225 23 -90 14 -161 -40 -304 -24 -66 -56 -176 -71 -245 -59 -280
-88 -335 -229 -444 -44 -34 -102 -89 -130 -124 l-51 -62 -105 5 c-305 16 -740
102 -1095 215 -591 189 -1193 526 -1658 928 -94 81 -101 90 -144 181 -260 555
-478 1140 -568 1523 -25 103 -28 140 -35 418 -5 190 -18 406 -34 575 -26 268
-49 541 -60 728 l-6 97 41 45 c54 58 150 119 241 150 73 26 73 26 23 20 -81
-10 -155 -34 -232 -75 l-73 -39 0 55 c0 70 17 111 70 163 82 81 180 121 299
123 70 1 73 2 36 10 -55 13 -179 4 -240 -17 -27 -9 -72 -30 -99 -47 l-48 -29
6 38 c19 102 95 213 207 299 96 73 136 87 259 86 283 -1 587 -129 860 -362 94
-81 68 -47 -53 70 -189 181 -394 300 -629 367 l-98 27 58 24 c31 13 190 68
352 122 162 53 347 121 410 149 142 63 423 213 613 326 78 47 144 85 147 84 3
0 25 -33 50 -72z m2366 -192 c20 -8 62 -35 95 -59 115 -86 379 -147 774 -177
83 -6 151 -12 153 -13 1 -2 -5 -34 -14 -72 -26 -111 -14 -263 34 -454 22 -86
45 -191 51 -235 6 -44 13 -93 15 -110 3 -16 3 38 1 120 -2 83 -11 202 -20 265
-28 193 -5 386 55 463 19 24 26 26 68 20 26 -3 72 -15 101 -26 49 -18 83 -48
316 -281 200 -201 274 -281 318 -349 145 -221 248 -469 292 -702 31 -168 105
-341 302 -705 61 -113 174 -333 252 -489 78 -155 211 -412 295 -570 200 -372
263 -499 277 -555 l11 -46 -71 -96 c-267 -354 -624 -710 -975 -972 l-101 -75
-155 6 c-160 7 -411 40 -630 82 -69 14 -127 25 -128 25 -2 0 15 21 39 47 60
68 107 172 121 268 14 102 -5 206 -56 303 -85 161 -128 259 -191 432 -112 309
-185 446 -285 532 -27 24 -50 46 -50 50 0 3 21 19 48 35 l47 28 235 6 c171 5
251 11 295 23 144 39 298 141 404 265 25 30 39 50 31 45 -8 -5 -61 -39 -116
-76 -56 -37 -133 -81 -172 -98 -71 -30 -172 -60 -203 -60 -16 0 -39 45 -39 74
0 6 30 25 66 40 71 31 165 111 198 167 l20 33 -50 -41 c-61 -52 -138 -91 -201
-102 -26 -5 -49 -8 -50 -7 -2 2 -7 24 -12 51 l-9 48 62 57 c33 32 72 77 85
101 l25 44 -46 -42 c-41 -37 -115 -83 -134 -83 -3 0 -3 84 1 188 18 444 12
508 -70 757 -35 105 -102 275 -79 200 107 -355 133 -590 85 -795 -38 -161 -40
-453 -5 -663 l7 -38 -89 8 c-49 4 -125 7 -170 7 -77 0 -87 -3 -185 -51 -125
-62 -220 -83 -368 -83 -131 1 -230 18 -346 60 -50 18 -121 44 -160 57 -99 36
-219 37 -292 4 -60 -27 -123 -90 -155 -157 -22 -44 -24 -46 -58 -40 -19 3 -92
6 -161 6 l-126 0 25 50 c30 62 24 107 -21 157 -76 82 -209 48 -238 -61 -13
-46 9 -117 44 -141 24 -17 32 -13 -108 -45 -55 -13 -134 -25 -175 -28 l-75 -4
0 238 c-1 268 -14 390 -70 670 -67 327 -177 674 -325 1019 -42 99 -76 181 -75
183 1 1 51 11 111 22 396 72 855 231 1104 383 151 93 414 327 455 406 21 41
60 268 77 444 7 70 16 127 20 127 5 0 25 -7 44 -15z m15 -3360 c52 -20 132
-47 178 -59 47 -13 88 -29 92 -37 4 -8 27 -54 50 -104 40 -87 48 -97 238 -285
108 -107 227 -235 264 -285 95 -126 156 -252 166 -340 l8 -70 2 66 c3 170
-143 426 -403 709 -47 51 -101 116 -120 145 -32 48 -81 154 -74 160 2 2 80 5
173 7 195 3 213 -1 291 -79 83 -83 131 -183 269 -558 26 -71 65 -164 86 -205
21 -41 54 -106 74 -145 19 -38 40 -96 45 -127 24 -154 -55 -313 -195 -387 -45
-23 -60 -26 -155 -26 -158 1 -300 38 -600 158 l-155 61 72 12 c111 19 173 59
216 139 33 62 31 182 -5 255 -52 105 -163 208 -368 341 -179 117 -335 263
-430 404 -92 137 -96 153 -47 216 70 92 156 101 328 34z m-491 -118 c0 -29 81
-177 137 -252 116 -153 280 -295 498 -431 125 -78 244 -186 274 -248 29 -58
28 -133 -1 -176 -40 -59 -87 -75 -213 -74 -116 0 -183 12 -420 70 -121 31
-145 40 -175 69 -121 116 -399 227 -529 212 -46 -5 -50 -4 -87 34 -120 124
-324 283 -449 350 -100 54 -173 72 -377 94 -54 6 -58 8 -58 32 0 27 -45 259
-56 286 -5 14 4 12 53 -8 153 -62 348 -91 553 -82 113 5 161 12 295 46 91 23
238 51 340 65 223 29 215 29 215 13z m409 -1291 c53 -19 214 -81 359 -140 144
-58 289 -114 323 -123 70 -19 70 -20 122 -168 49 -141 60 -219 54 -366 -6
-161 -36 -258 -82 -271 -148 -42 -561 -125 -571 -115 -2 2 9 33 25 68 42 94
70 190 76 267 l5 67 -14 -60 c-18 -76 -47 -150 -97 -245 -58 -110 -56 -109
-140 -120 -216 -28 -699 -42 -699 -20 0 6 28 31 62 58 203 154 242 219 303
502 18 85 50 200 71 255 72 193 82 301 39 434 -7 23 -6 23 30 17 21 -4 81 -22
134 -40z m1120 -333 c92 4 124 1 290 -33 102 -21 241 -46 308 -56 141 -20 140
-18 28 -94 -146 -98 -335 -179 -587 -250 -78 -22 -146 -40 -153 -40 -8 0 -14
30 -19 93 -8 112 -28 210 -61 307 -14 41 -25 77 -25 80 0 4 26 3 58 -2 31 -6
104 -8 161 -5z m989 -138 c4 -4 -204 -128 -324 -193 -203 -111 -481 -232 -723
-316 -57 -20 -105 -35 -107 -33 -2 2 1 19 6 38 l10 35 117 28 c380 92 694 238
848 396 l60 61 55 -7 c30 -4 56 -8 58 -9z"/>
<path d="M5330 9762 c-167 -56 -254 -118 -307 -219 -33 -62 -56 -133 -44 -133
4 0 24 24 44 53 82 118 211 177 390 177 138 0 323 48 334 86 7 23 -117 56
-227 60 -95 4 -113 2 -190 -24z"/>
<path d="M6455 9767 c-89 -30 -171 -95 -148 -118 8 -8 82 -13 215 -15 217 -3
259 -10 345 -60 23 -13 62 -47 87 -76 25 -29 48 -49 52 -46 8 9 -39 110 -72
153 -91 120 -346 206 -479 162z"/>
<path d="M5807 9482 c7 -59 18 -206 23 -327 11 -224 21 -313 34 -285 18 42 37
169 43 285 5 112 3 141 -15 213 -22 86 -66 195 -86 211 -8 7 -8 -18 1 -97z"/>
<path d="M5510 9480 c8 -5 20 -10 25 -10 6 0 3 5 -5 10 -8 5 -19 10 -25 10 -5
0 -3 -5 5 -10z"/>
<path d="M6435 9458 c-47 -24 -99 -71 -125 -113 -20 -32 -36 -97 -23 -93 5 1
23 -6 41 -16 57 -30 180 -56 266 -56 82 0 192 22 211 42 7 7 2 8 -15 3 -53
-17 -96 -25 -130 -24 -19 0 -29 3 -22 6 17 7 15 23 -3 23 -8 0 -19 9 -25 19
-7 15 -5 25 9 43 18 21 22 22 42 10 21 -13 22 -13 16 17 -4 20 -3 31 5 31 11
0 118 -62 164 -95 18 -14 25 -12 75 20 53 34 53 35 19 29 -19 -3 -40 -7 -46
-9 -7 -2 -35 18 -62 45 -28 27 -75 62 -104 77 -45 23 -65 28 -133 28 -93 0
-164 -27 -234 -90 -22 -21 -41 -33 -41 -28 0 23 88 108 135 129 27 13 43 24
35 23 -8 0 -33 -9 -55 -21z m55 -129 c-14 -26 -5 -70 22 -105 l21 -26 -29 5
c-16 4 -50 9 -76 13 -94 13 -102 70 -15 109 68 31 92 32 77 4z"/>
<path d="M5570 9450 c14 -11 28 -20 31 -20 4 0 14 -11 23 -25 15 -23 13 -23
-50 12 -54 29 -80 37 -138 41 -63 4 -79 1 -130 -23 -32 -15 -86 -54 -121 -86
-50 -47 -69 -59 -96 -60 l-34 0 37 -15 c37 -16 38 -16 115 26 43 23 93 48 111
56 32 13 33 13 26 -9 -13 -38 -5 -70 24 -100 l27 -29 -60 6 c-33 4 -78 9 -100
11 -39 4 -39 4 10 -11 34 -11 92 -17 185 -17 119 -1 142 1 192 21 31 13 62 29
68 37 7 8 16 12 21 10 10 -7 -40 92 -61 120 -21 29 -79 75 -93 75 -7 0 -1 -9
13 -20z m32 -116 c30 -15 36 -28 30 -61 -5 -28 -22 -38 -80 -47 -33 -5 -43 -3
-40 6 3 7 -5 17 -16 23 -42 21 -25 81 21 72 20 -4 22 -1 17 15 -5 17 -3 19 18
13 12 -4 35 -14 50 -21z"/>
<path d="M5611 9118 c-61 -28 -186 -35 -271 -15 -36 9 -66 14 -68 12 -10 -10
137 -45 187 -45 67 0 145 22 181 50 31 24 27 24 -29 -2z"/>
<path d="M6670 9099 c-80 -22 -158 -23 -230 -5 -66 17 -78 12 -24 -10 82 -34
207 -28 299 16 49 23 39 23 -45 -1z"/>
<path d="M5730 8803 c-35 -29 -60 -78 -60 -115 0 -13 9 -40 19 -60 l20 -36
-47 -45 c-26 -24 -72 -66 -102 -93 -148 -132 -206 -221 -197 -301 2 -24 8 -47
12 -51 4 -4 33 8 66 25 58 32 59 32 60 10 0 -12 4 -31 9 -42 6 -16 10 -8 15
33 8 54 38 92 73 92 8 0 54 -29 102 -65 147 -109 266 -151 404 -142 64 4 93
12 145 39 56 28 75 46 130 118 35 47 73 87 84 88 25 5 117 -59 167 -116 28
-31 45 -42 56 -38 14 6 16 17 10 75 -3 37 -13 87 -21 110 -20 57 0 50 40 -14
39 -63 42 -149 7 -210 l-23 -40 30 32 c49 53 63 128 37 201 -20 56 -51 96
-100 129 -23 15 -68 51 -101 79 -33 28 -81 65 -106 82 -53 35 -59 47 -59 106
0 45 -37 131 -69 161 -17 15 -17 10 5 -42 24 -60 30 -99 16 -120 -6 -9 -17 -9
-47 2 -55 19 -96 18 -163 -4 -96 -32 -126 -34 -226 -15 -87 16 -98 16 -135 2
-38 -15 -41 -15 -46 3 -8 24 2 88 21 143 8 21 12 41 10 43 -2 2 -18 -9 -36
-24z m590 -614 c-75 -68 -111 -82 -232 -87 -90 -4 -118 -1 -180 18 -80 24
-218 85 -218 96 0 3 19 3 43 0 152 -26 441 -24 577 3 25 5 47 9 50 9 3 1 -15
-17 -40 -39z"/>
<path d="M6036 7846 c-22 -8 -49 -25 -60 -37 l-21 -21 34 6 c18 3 92 6 163 6
135 0 150 7 80 36 -54 22 -149 27 -196 10z"/>
<path d="M2721 4415 c-1 -33 27 -132 50 -178 27 -54 83 -113 134 -140 34 -19
56 -22 155 -22 63 0 205 9 315 19 209 19 319 17 417 -9 29 -7 54 -12 56 -11 1
2 -20 13 -47 25 -131 56 -286 67 -611 42 -102 -8 -201 -11 -221 -7 -90 17
-176 107 -225 238 -12 35 -23 54 -23 43z"/>
<path d="M4453 3704 c-18 -8 -108 -32 -200 -54 -242 -58 -301 -83 -570 -243
-107 -63 -235 -120 -319 -142 -87 -23 -211 -20 -281 7 -115 43 -214 177 -263
359 l-21 74 6 -64 c4 -35 17 -98 30 -140 43 -135 114 -222 225 -275 62 -29 71
-31 185 -30 110 0 127 3 210 33 120 44 183 77 354 184 173 107 228 133 431
199 142 46 250 91 250 103 0 6 3 7 -37 -11z"/>
<path d="M7155 5696 c-90 -40 -108 -161 -35 -231 28 -27 38 -30 95 -30 57 0
67 3 95 30 116 111 -8 296 -155 231z"/>
<path d="M5587 5536 c-51 -19 -75 -42 -88 -87 -44 -147 130 -250 236 -139 38
40 46 119 16 167 -37 60 -100 82 -164 59z"/>
<path d="M7736 3970 c-83 -25 -122 -131 -76 -207 56 -92 177 -94 237 -4 46 69
20 160 -57 199 -47 24 -59 25 -104 12z"/>
</g>
</svg>
